<svg id="Capa_1" enable-background="new 0 0 511.994 511.994" height="512" viewBox="0 0 511.994 511.994" width="512" xmlns="http://www.w3.org/2000/svg"><g><path d="m497.09 197.744c-9.966 0-19.929.176-29.886.529v133.942c9.957.352 19.921.529 29.886.529 9.88-44.458 9.88-90.542 0-135z" fill="#fbf0a8"/><path d="m467.204 198.273c-10.018.354-20.03.887-30.032 1.597-37.361 2.655-101.347 7.202-142.422 10.12v110.507l142.416 10.12c10.003.711 20.018 1.243 30.038 1.598 9.723-44.118 9.723-89.824 0-133.942z" fill="#fffbdb"/><path d="m14.91 197.744c-9.88 44.458-9.88 90.542-.001 135 19.994 0 39.981-.709 59.925-2.126l142.416-10.12v-110.508c-41.075-2.919-105.061-7.466-142.422-10.12-19.944-1.417-39.924-2.126-59.918-2.126z" fill="#fffbdb"/><path d="m217.25 290.497 38.75 87.247 38.75 30v-117.247z" fill="#e84941"/><path d="m217.25 290.497v117.247l38.75-30v-87.247z" fill="#fa6348"/><circle cx="256" cy="265.244" fill="#fc7c49" r="67.5"/><path d="m256 227.744v75c20.711 0 37.5-16.789 37.5-37.5s-16.789-37.5-37.5-37.5z" fill="#e84941"/><path d="m263.5 265.244c0-20.711-3.358-37.5-7.5-37.5-20.711 0-37.5 16.789-37.5 37.5s16.789 37.5 37.5 37.5c4.142 0 7.5-16.789 7.5-37.5z" fill="#fa6348"/><path d="m497.09 188.687c-20.087 0-40.426.722-60.449 2.145l-139.891 9.94c-11.742-7.632-25.731-12.085-40.75-12.085s-29.007 4.454-40.75 12.085l-139.891-9.94c-20.023-1.423-40.361-2.145-60.449-2.145-3.516 0-6.559 2.441-7.321 5.873-10.05 45.222-10.05 93.03-.001 138.254.763 3.432 3.806 5.873 7.321 5.873 20.08 0 40.421-.722 60.456-2.146 4.132-.293 7.243-3.881 6.95-8.013-.294-4.132-3.889-7.251-8.013-6.949-17.665 1.255-35.573 1.955-53.319 2.085-7.914-39.371-7.913-80.586.001-119.955 17.752.13 35.656.83 53.312 2.084l125.005 8.882c-11.387 13.157-18.301 30.287-18.301 49.012 0 18.724 6.913 35.854 18.301 49.01l-95.073 6.756c-4.132.293-7.243 3.881-6.95 8.013.281 3.951 3.573 6.969 7.474 6.969.179 0 .358-.006.539-.02l104.46-7.423v79.195c0 2.861 1.628 5.474 4.197 6.734 2.568 1.259 5.631.948 7.894-.803l34.158-26.447 34.159 26.446c1.34 1.037 2.96 1.569 4.592 1.569 1.124 0 2.254-.252 3.302-.766 2.569-1.26 4.197-3.873 4.197-6.734v-79.195l134.385 9.549c20.035 1.424 40.375 2.146 60.455 2.146 3.516 0 6.559-2.441 7.321-5.873 10.05-45.224 10.05-93.031 0-138.254-.763-3.431-3.806-5.872-7.321-5.872zm-241.09 15c33.084 0 60 26.916 60 60s-26.916 60-60 60-60-26.916-60-60 26.916-60 60-60zm4.591 166.569c-2.703-2.093-6.479-2.093-9.182 0l-26.659 20.639v-59.055c9.521 4.383 20.1 6.847 31.25 6.847s21.729-2.464 31.25-6.847v59.056zm230.425-46.592c-17.745-.13-35.653-.83-53.318-2.085l-124.998-8.882c11.387-13.156 18.3-30.286 18.3-49.01 0-18.725-6.914-35.855-18.301-49.011l125.004-8.882c17.656-1.255 35.561-1.955 53.313-2.084 7.914 39.368 7.914 80.584 0 119.954z"/><path d="m252.103 173.687c19.664 0 33.397-15.42 33.397-37.5 0-4.142-3.357-7.5-7.5-7.5h-17.948c-4.143 0-7.5 3.358-7.5 7.5s3.357 7.5 7.5 7.5h9.581c-1.914 7.951-7.174 15-17.53 15-12.406 0-22.5-10.093-22.5-22.5s10.094-22.5 22.5-22.5c4.51 0 8.858 1.327 12.575 3.838 3.432 2.318 8.094 1.416 10.413-2.016 2.318-3.432 1.416-8.095-2.017-10.414-6.205-4.192-13.458-6.409-20.972-6.409-20.678 0-37.5 16.822-37.5 37.5s16.823 37.501 37.501 37.501z"/><path d="m303.356 173.687c4.143 0 7.5-3.357 7.501-7.499l.003-16.982 19.305 21.936c1.482 1.685 3.553 2.545 5.633 2.545 1.76 0 3.527-.616 4.952-1.87 3.109-2.736 3.411-7.476.675-10.585l-15.249-17.326c9.888-2.849 17.119-11.687 17.119-22.126 0-12.734-10.756-23.093-23.976-23.093h-15.953c-4.142 0-7.499 3.357-7.5 7.499l-.01 60c0 4.142 3.358 7.5 7.5 7.501zm7.51-60h8.454c4.865 0 8.976 3.706 8.976 8.093s-4.11 8.093-8.976 8.093c-1.975 0-5.335.014-8.457.029z"/><path d="m37.5 173.687c8.263 0 15.682-2.716 21.452-7.856 1.135-1.01 2.21-2.12 3.197-3.297 2.659-3.175 2.241-7.906-.935-10.565-3.174-2.66-7.905-2.241-10.565.934-.519.62-1.082 1.201-1.673 1.727-3.023 2.693-6.885 4.058-11.477 4.058-12.406 0-22.5-10.093-22.5-22.5s10.094-22.5 22.5-22.5c4.51 0 8.858 1.327 12.575 3.838 3.433 2.318 8.095 1.416 10.413-2.016s1.416-8.095-2.017-10.414c-6.205-4.192-13.458-6.409-20.972-6.409-20.678 0-37.5 16.822-37.5 37.5s16.824 37.5 37.502 37.5z"/><path d="m103.745 173.687c20.678 0 37.5-16.822 37.5-37.5s-16.822-37.5-37.5-37.5-37.5 16.822-37.5 37.5 16.822 37.5 37.5 37.5zm0-60c12.406 0 22.5 10.093 22.5 22.5s-10.094 22.5-22.5 22.5-22.5-10.093-22.5-22.5 10.094-22.5 22.5-22.5z"/><path d="m486.445 173.308c12.645 0 23.263-8.069 25.248-19.186 1.493-8.366-2.305-19.294-17.442-24.878-7.369-2.718-14.23-5.679-16.337-6.601-1.633-1.313-1.578-3.142-1.469-3.904.152-1.059.922-3.647 4.772-4.808 8.454-2.547 16.293 3.641 16.513 3.818 3.169 2.629 7.874 2.211 10.528-.948 2.665-3.17 2.256-7.901-.915-10.567-.565-.477-14.064-11.602-30.452-6.666-8.283 2.495-14.144 9.024-15.294 17.038-1.079 7.52 2.18 14.753 8.507 18.878.331.216.679.405 1.04.566.347.155 8.61 3.833 17.915 7.266 2.631.97 8.663 3.708 7.867 8.168-.599 3.353-4.683 6.822-10.481 6.822-5.964 0-11.702-2.404-15.351-6.43-2.782-3.071-7.526-3.301-10.594-.521-3.069 2.782-3.303 7.524-.521 10.594 6.445 7.113 16.339 11.359 26.466 11.359z"/><path d="m352.647 172.816c.878.335 1.78.493 2.668.493 3.021 0 5.87-1.84 7.01-4.833l3.771-9.902h25.846l3.729 9.88c1.462 3.875 5.792 5.833 9.665 4.369 3.875-1.463 5.831-5.79 4.368-9.665l-22.325-59.157c-.025-.069-.053-.138-.081-.207-1.373-3.334-4.588-5.488-8.193-5.488-3.616.003-6.832 2.164-8.199 5.503-.023.057-.046.115-.068.173l-22.529 59.155c-1.476 3.872.467 8.205 4.338 9.679zm26.431-48.327 7.203 19.086h-14.472z"/><path d="m414.188 113.308h9v52.5c0 4.142 3.357 7.5 7.5 7.5s7.5-3.358 7.5-7.5v-52.5h9.135c4.143 0 7.5-3.358 7.5-7.5s-3.357-7.5-7.5-7.5h-33.135c-4.143 0-7.5 3.358-7.5 7.5s3.357 7.5 7.5 7.5z"/><path d="m156.745 173.308c4.143 0 7.5-3.358 7.5-7.5v-35.829l27.686 40.091c1.427 2.066 3.755 3.239 6.173 3.239.743 0 1.494-.111 2.231-.34 3.133-.977 5.268-3.878 5.268-7.16v-59.889c0-4.142-3.357-7.5-7.5-7.5s-7.5 3.358-7.5 7.5v35.829l-27.686-40.091c-1.865-2.701-5.268-3.874-8.404-2.898-3.133.977-5.268 3.878-5.268 7.16v59.888c0 4.142 3.358 7.5 7.5 7.5z"/><path d="m256 308.687c24.813 0 45-20.187 45-45s-20.187-45-45-45-45 20.187-45 45 20.187 45 45 45zm0-75c16.542 0 30 13.458 30 30s-13.458 30-30 30-30-13.458-30-30 13.458-30 30-30z"/></g></svg>